<?xml version="1.0" encoding="utf-8"?>
<!-- Generator: Adobe Illustrator 21.0.0, SVG Export Plug-In . SVG Version: 6.00 Build 0)  -->
<svg version="1.1" id="Layer_1" xmlns="http://www.w3.org/2000/svg" xmlns:xlink="http://www.w3.org/1999/xlink" x="0px" y="0px"
	 viewBox="0 0 60.4 57.1" style="enable-background:new 0 0 60.4 57.1;" xml:space="preserve">
<style type="text/css">
	.st0{clip-path:url(#SVGID_2_);fill:#1A1A1A;}
	.st1{fill:#1A1A1A;}
	.st2{clip-path:url(#SVGID_4_);fill:#1A1A1A;}
	.st3{clip-path:url(#SVGID_4_);fill:#253B7C;}
	.st4{clip-path:url(#SVGID_6_);}
	.st5{fill:#5E5C5D;}
	.st6{fill:#696767;}
	.st7{fill:#FFFFFF;}
</style>
<g>
	<defs>
		<rect id="SVGID_5_" x="27.8" y="21.7" width="11.3" height="13.7"/>
	</defs>
	<clipPath id="SVGID_2_">
		<use xlink:href="#SVGID_5_"  style="overflow:visible;"/>
	</clipPath>
	<path style="clip-path:url(#SVGID_2_);" d="M38.1,26.3h-2.3v0.9h2.3c0.1,0,0.1,0.1,0.1,0.1v7.1c0,0.1-0.1,0.1-0.1,0.1h-9.2
		c-0.1,0-0.1-0.1-0.1-0.1v-7.1c0-0.1,0.1-0.1,0.1-0.1h2.4v-0.9h-2.4c-0.6,0-1,0.5-1,1v7.1c0,0.6,0.5,1,1,1h9.2c0.6,0,1-0.5,1-1v-7.1
		C39.1,26.7,38.7,26.3,38.1,26.3"/>
	<path style="clip-path:url(#SVGID_2_);" d="M31.2,25.2l1.8-1.8v7.4c0,0.3,0.2,0.5,0.5,0.5c0.3,0,0.5-0.2,0.5-0.5v-7.4l1.8,1.8
		l0.6-0.6L33.8,22c0,0,0,0,0,0l-0.3-0.3l0,0v0L33.2,22c0,0,0,0,0,0l-2.6,2.6L31.2,25.2z"/>
</g>
</svg>
