<?xml version="1.0" encoding="utf-8"?>
<!-- Generator: Adobe Illustrator 21.0.0, SVG Export Plug-In . SVG Version: 6.00 Build 0)  -->
<svg version="1.1" id="Layer_1" xmlns="http://www.w3.org/2000/svg" xmlns:xlink="http://www.w3.org/1999/xlink" x="0px" y="0px"
	 viewBox="0 0 60.4 57.1" style="enable-background:new 0 0 60.4 57.1;" xml:space="preserve">
<style type="text/css">
	.st0{clip-path:url(#SVGID_2_);fill:#1A1A1A;}
	.st1{fill:#1A1A1A;}
	.st2{clip-path:url(#SVGID_4_);fill:#1A1A1A;}
	.st3{clip-path:url(#SVGID_4_);fill:#253B7C;}
	.st4{clip-path:url(#SVGID_6_);}
	.st5{fill:#5E5C5D;}
	.st6{fill:#696767;}
	.st7{fill:#FFFFFF;}
</style>
<path class="st5" d="M40.8,35.7c0.1,0,0.2-0.1,0.2-0.1c0-0.1,0-0.1-0.2-0.1h-0.1L40.8,35.7L40.8,35.7z M40.5,35.3h0.2
	c0.2,0,0.3,0.1,0.3,0.2c0,0.1-0.1,0.2-0.2,0.2l0.2,0.4H41l-0.2-0.3h-0.1v0.3h-0.1V35.3z M41.4,35.7c0-0.3-0.2-0.6-0.6-0.6
	c-0.3,0-0.6,0.3-0.6,0.6c0,0.3,0.3,0.6,0.6,0.6C41.1,36.3,41.4,36.1,41.4,35.7 M40.1,35.7c0-0.4,0.3-0.7,0.7-0.7
	c0.4,0,0.7,0.3,0.7,0.7c0,0.4-0.3,0.7-0.7,0.7C40.4,36.4,40.1,36.1,40.1,35.7 M31.9,35.7c0-0.9,0.8-1.6,1.7-2.5l1-1
	c0.7-0.7,2.1-2.1,1.5-3.4c0-0.1,0-0.1,0.1-0.1c0.9,1.1,0.6,2.8-1.2,4.5l-1.4,1.4c-0.9,0.9-1.3,1.3-1.6,2.4c0,0.1-0.1,0.1-0.1,0V35.7
	z M28.6,32.2c-1,1-1.3,2.2-0.5,2.9c0.1,0.1,0,0.1-0.1,0.1c-1-0.5-1.8-2.1-0.1-3.9l3.5-3.5c0.9-0.9,1.3-1.3,1.6-2.4
	c0-0.1,0.1-0.1,0.1,0v1.3c0,0.9-0.8,1.6-1.7,2.5L28.6,32.2z M26.8,33.6c-0.9-1.1-0.6-2.8,1.2-4.5l3.6-3.6c0.9-0.9,1.3-1.3,1.6-2.4
	c0-0.1,0.1-0.1,0.1,0v1.3c0,0.9-0.8,1.6-1.7,2.5l-3.2,3.2C27.7,30.8,26.3,32.2,26.8,33.6C26.9,33.6,26.8,33.7,26.8,33.6 M26.1,31.3
	c-0.3-1-0.1-2.6,1.4-4.1l3.9-3.9c0.9-0.9,1.3-1.3,1.6-2.4c0-0.1,0.1-0.1,0.1,0v1.3c0,0.9-0.8,1.6-1.7,2.5l-3.4,3.4
	c-1.6,1.6-1.8,2.3-1.8,3.2C26.3,31.3,26.2,31.3,26.1,31.3 M34.3,30.1c1-1,1.3-2.2,0.5-2.9c-0.1-0.1,0-0.1,0.1-0.1
	c1,0.5,1.8,2.1,0.1,3.9l-1.3,1.3c-0.9,0.9-1.3,1.3-1.6,2.4c0,0.1-0.1,0.1-0.1,0v-1.3c0-0.9,0.8-1.6,1.7-2.5L34.3,30.1z M36.7,31
	c0.3,1,0.1,2.6-1.4,4.1l-1.8,1.8c0,0.1-0.1,0.1-0.1,0.1h-1.2c0.3-0.5,0.8-1,1.4-1.6l1.2-1.2c1.6-1.6,1.8-2.3,1.8-3.2
	C36.6,30.9,36.7,30.9,36.7,31 M32,39.3c0,0.1-0.1,0.1-0.1,0V38c0,0,0-0.1,0.1-0.1l0.7,0C32.3,38.3,32.1,38.7,32,39.3 M34.9,39.3
	c-1.7-0.3-2.6,0.5-2.9,1.3c0,0.1-0.1,0.1-0.1,0l0-0.2c0-0.9,0.8-1.6,1.7-2.5l1.5-1.5l4,0.7c0,0,1.1,1.1,2.1,2.1c1.9-2.2,3-5.1,3-8.2
	c0-7-5.7-12.7-12.7-12.7c-7,0-12.7,5.7-12.7,12.7c0,3.1,1.1,6,3,8.2c1-1,2.1-2.1,2.1-2.1l4.5-0.8c2.1-0.4,2.6,0.1,2.6,0.8
	c0,0,0,0.1-0.1,0.1l-1.3,0c0,0-0.1,0-0.1,0.1v0.8c0,0,0,0.1,0.1,0.1h1.3c0,0,0.1,0,0.1,0.1c0,0,0,2.5,0,2.6c0,0.1-0.1,0.1-0.1,0
	c-0.3-0.8-1.2-1.6-2.9-1.3c0,0-3,0.5-5.2,0.9c2.3,2.1,5.3,3.4,8.7,3.4s6.4-1.3,8.7-3.4C37.9,39.8,34.9,39.3,34.9,39.3"/>
</svg>
