<?xml version="1.0" encoding="utf-8"?>
<!-- Generator: Adobe Illustrator 21.0.0, SVG Export Plug-In . SVG Version: 6.00 Build 0)  -->
<svg version="1.1" id="Layer_1" xmlns="http://www.w3.org/2000/svg" xmlns:xlink="http://www.w3.org/1999/xlink" x="0px" y="0px"
	 viewBox="0 0 60.4 57.1" style="enable-background:new 0 0 60.4 57.1;" xml:space="preserve">
<style type="text/css">
	.st0{clip-path:url(#SVGID_2_);fill:#1A1A1A;}
	.st1{fill:#1A1A1A;}
	.st2{clip-path:url(#SVGID_4_);fill:#1A1A1A;}
	.st3{clip-path:url(#SVGID_4_);fill:#253B7C;}
	.st4{clip-path:url(#SVGID_6_);}
	.st5{fill:#5E5C5D;}
	.st6{fill:#696767;}
	.st7{fill:#FFFFFF;}
</style>
<path class="st6" d="M28.9,24.8c-1.7,0-3,1.4-3,3V34c0,1.7,1.4,3,3,3h5.7c1.7,0,3-1.4,3-3v-6.1c0-1.7-1.4-3-3-3H28.9z M34.6,38h-5.7
	c-2.2,0-4.1-1.8-4.1-4.1v-6.1c0-2.2,1.8-4.1,4.1-4.1h5.7c2.2,0,4.1,1.8,4.1,4.1V34C38.7,36.2,36.8,38,34.6,38"/>
<path class="st6" d="M31.6,28.4c-0.6,0-1.2,0.2-1.6,0.7c-0.5,0.5-0.8,1.1-0.8,1.8c0,1.4,1.1,2.5,2.5,2.5c1.4,0,2.5-1.1,2.5-2.5
	C34.3,29.4,33.3,28.4,31.6,28.4C31.7,28.4,31.7,28.4,31.6,28.4 M31.7,34.7c-2.1,0-3.8-1.7-3.8-3.8c0-1,0.4-2,1.2-2.7
	c0.7-0.7,1.7-1.1,2.6-1c1.2,0,2.2,0.4,2.8,1.1c0.6,0.7,1,1.6,0.9,2.6c0,1-0.4,2-1.1,2.7C33.7,34.3,32.7,34.7,31.7,34.7"/>
<path class="st6" d="M36.5,27c0,0.5-0.4,0.9-0.9,0.9c-0.5,0-0.9-0.4-0.9-0.9c0-0.5,0.4-0.9,0.9-0.9C36.1,26.1,36.5,26.5,36.5,27"/>
</svg>
