<?xml version="1.0" encoding="utf-8"?>
<!-- Generator: Adobe Illustrator 21.0.0, SVG Export Plug-In . SVG Version: 6.00 Build 0)  -->
<svg version="1.1" id="Layer_1" xmlns="http://www.w3.org/2000/svg" xmlns:xlink="http://www.w3.org/1999/xlink" x="0px" y="0px"
	 viewBox="0 0 135.2 57.1" style="enable-background:new 0 0 135.2 57.1;" xml:space="preserve">
<style type="text/css">
	.st0{clip-path:url(#SVGID_2_);fill:#1A1A1A;}
	.st1{fill:#1A1A1A;}
	.st2{clip-path:url(#SVGID_4_);fill:#1A1A1A;}
	.st3{clip-path:url(#SVGID_4_);fill:#253B7C;}
	.st4{clip-path:url(#SVGID_6_);}
	.st5{fill:#5E5C5D;}
	.st6{fill:#696767;}
	.st7{fill:#FFFFFF;}
</style>
<path class="st5" d="M55.4,35.9c1.7,0,3-0.7,4-1.5v-4.1h-4.1v1.8h2.1v1.3c-0.5,0.4-1.2,0.6-1.9,0.6c-1.7,0-2.8-1.3-2.8-3v0
	c0-1.6,1.2-2.9,2.7-2.9c1.1,0,1.7,0.3,2.5,1l1.3-1.6c-1-0.8-2-1.3-3.7-1.3c-2.8,0-4.9,2.2-4.9,4.9v0C50.5,33.9,52.5,35.9,55.4,35.9"
	/>
<path class="st5" d="M64.5,34.2c-1.1,0-1.9-0.9-1.9-2v0c0-1.1,0.7-2,1.9-2c1.1,0,1.9,0.9,1.9,2v0C66.4,33.3,65.7,34.2,64.5,34.2
	 M64.5,35.9c2.2,0,3.9-1.7,3.9-3.7v0c0-2.1-1.6-3.7-3.9-3.7c-2.2,0-3.9,1.7-3.9,3.7v0C60.6,34.3,62.3,35.9,64.5,35.9"/>
<path class="st5" d="M73.1,34.2c-1.1,0-1.9-0.9-1.9-2v0c0-1.1,0.7-2,1.9-2c1.1,0,1.9,0.9,1.9,2v0C75,33.3,74.3,34.2,73.1,34.2
	 M73.1,35.9c2.2,0,3.9-1.7,3.9-3.7v0c0-2.1-1.6-3.7-3.9-3.7c-2.2,0-3.9,1.7-3.9,3.7v0C69.2,34.3,70.9,35.9,73.1,35.9"/>
<path class="st5" d="M81.7,34.2c-1,0-1.8-0.8-1.8-2v0c0-1.2,0.8-2,1.8-2c1,0,1.7,0.8,1.7,2v0C83.4,33.4,82.6,34.2,81.7,34.2
	 M81.2,35.9c1.1,0,1.7-0.5,2.2-1.2v1h2V26h-2v3.5c-0.5-0.6-1.2-1.1-2.2-1.1c-1.7,0-3.3,1.3-3.3,3.7v0C77.9,34.6,79.5,35.9,81.2,35.9
	"/>
<path class="st5" d="M87.2,35.8h1v-4c0-1.3,0.9-2.2,2.1-2.2c1.2,0,1.9,0.8,1.9,2.1v4h1v-4.3c0-1.6-1-2.8-2.7-2.8
	c-1.2,0-1.9,0.6-2.4,1.4v-1.2h-1V35.8z"/>
<path class="st5" d="M95.9,31.9c0.1-1.3,1.1-2.3,2.3-2.3c1.4,0,2.1,1.1,2.2,2.3H95.9z M95.9,32.7h5.5c0-0.2,0-0.3,0-0.4
	c0-2-1.2-3.7-3.2-3.7c-1.9,0-3.3,1.6-3.3,3.6c0,2.2,1.6,3.6,3.5,3.6c1.3,0,2.2-0.5,2.9-1.3l-0.6-0.6c-0.6,0.6-1.2,1-2.2,1
	C97.1,35,96,34.2,95.9,32.7"/>
<polygon class="st5" points="104.4,35.8 105.3,35.8 107.2,30.3 109.1,35.8 110,35.8 112.4,28.8 111.3,28.8 109.5,34.4 107.6,28.8 
	106.8,28.8 104.9,34.4 103.1,28.8 102,28.8 "/>
<path class="st5" d="M115.9,35.9c1.4,0,2.5-0.8,2.5-2.1v0c0-1.2-1.2-1.7-2.2-2c-0.9-0.3-1.8-0.5-1.8-1.2v0c0-0.6,0.5-1,1.3-1
	c0.7,0,1.4,0.3,2.1,0.7l0.5-0.8c-0.7-0.5-1.6-0.8-2.5-0.8c-1.4,0-2.4,0.8-2.4,2v0c0,1.3,1.2,1.6,2.3,2c0.9,0.3,1.7,0.5,1.7,1.2v0
	c0,0.7-0.6,1.1-1.4,1.1c-0.8,0-1.6-0.3-2.4-0.9l-0.5,0.7C113.8,35.5,114.9,35.9,115.9,35.9"/>
<path class="st5" d="M38,28.6c1.2-2.3,2.3-4.6,3.5-6.8c0.1-0.2,0.1-0.3,0.2-0.5c0.1-0.9-0.3-1.5-0.7-2.4c0.1,0.7,0.1,1.3-0.9,3
	l-3.4,6.8H38z M43.3,27.6c0.2-0.3,0.3-0.5,0.3-0.9c0.1-0.9-0.3-1.5-0.7-2.4c0.1,0.7,0.2,1.2-0.8,2.9l-0.7,1.4h1.4L43.3,27.6z
	 M40.5,28.6h-1.4l2.2-4.4c1-1.7,0.9-2.1,0.8-2.9c0.4,0.9,0.7,1.6,0.7,2.4c0,0.2-0.1,0.4-0.1,0.5C41.9,25.7,41.2,27.1,40.5,28.6"/>
<path class="st5" d="M42.7,37.5c-6.3,2.1-14,0.7-14-7.4c0-4.4,3.5-7.9,7.8-8.1v3.2c-1.4,0.1-2.6,0.8-3.4,1.8c-1.2,1.7-1.2,4.1-0.3,6
	c1.5,2.9,3.8,2.5,6.5,2.5v-3.7h-2.5v-2.7h5.9l0,7.4V37.5z"/>
</svg>
