<?xml version="1.0" encoding="utf-8"?>
<!-- Generator: Adobe Illustrator 21.0.0, SVG Export Plug-In . SVG Version: 6.00 Build 0)  -->
<svg version="1.1" id="Layer_1" xmlns="http://www.w3.org/2000/svg" xmlns:xlink="http://www.w3.org/1999/xlink" x="0px" y="0px"
	 viewBox="0 0 135.2 57.1" style="enable-background:new 0 0 135.2 57.1;" xml:space="preserve">
<style type="text/css">
	.st0{clip-path:url(#SVGID_2_);fill:#1A1A1A;}
	.st1{fill:#1A1A1A;}
	.st2{clip-path:url(#SVGID_4_);fill:#1A1A1A;}
	.st3{clip-path:url(#SVGID_4_);fill:#253B7C;}
	.st4{clip-path:url(#SVGID_6_);}
	.st5{fill:#5E5C5D;}
	.st6{fill:#696767;}
	.st7{fill:#FFFFFF;}
</style>
<g>
	<defs>
		<rect id="SVGID_1_" x="17.2" y="14.9" width="99.7" height="21.9"/>
	</defs>
	<clipPath id="SVGID_2_">
		<use xlink:href="#SVGID_1_"  style="overflow:visible;"/>
	</clipPath>
	<path class="st0" d="M47,34c1.9,0,3.4-0.7,4.5-1.7v-4.5h-4.5v2h2.3v1.5c-0.6,0.4-1.3,0.6-2.2,0.6c-1.8,0-3.2-1.4-3.2-3.3v0
		c0-1.8,1.3-3.2,3-3.2c1.2,0,1.9,0.4,2.7,1.1l1.4-1.7c-1.1-0.9-2.2-1.4-4.1-1.4c-3.2,0-5.5,2.4-5.5,5.4v0C41.5,31.7,43.7,34,47,34"
		/>
	<path class="st0" d="M57,32.1c-1.3,0-2.1-1-2.1-2.2v0c0-1.2,0.8-2.2,2.1-2.2c1.3,0,2.1,1,2.1,2.2v0C59.1,31.1,58.3,32.1,57,32.1
		 M57,34c2.5,0,4.3-1.9,4.3-4.2v0c0-2.3-1.8-4.1-4.3-4.1c-2.5,0-4.3,1.9-4.3,4.2v0C52.7,32.2,54.5,34,57,34"/>
	<path class="st0" d="M66.6,32.1c-1.3,0-2.1-1-2.1-2.2v0c0-1.2,0.8-2.2,2.1-2.2c1.3,0,2.1,1,2.1,2.2v0
		C68.7,31.1,67.9,32.1,66.6,32.1 M66.6,34c2.5,0,4.3-1.9,4.3-4.2v0c0-2.3-1.8-4.1-4.3-4.1c-2.5,0-4.3,1.9-4.3,4.2v0
		C62.3,32.2,64.1,34,66.6,34"/>
	<path class="st0" d="M76.1,32.1c-1.1,0-2-0.9-2-2.2v0c0-1.3,0.9-2.2,2-2.2c1.1,0,1.9,0.9,1.9,2.2v0C78.1,31.2,77.2,32.1,76.1,32.1
		 M75.6,34c1.2,0,1.9-0.6,2.5-1.3v1.1h2.3V23H78v3.9c-0.5-0.6-1.3-1.2-2.5-1.2c-1.9,0-3.6,1.5-3.6,4.1v0C71.9,32.5,73.7,34,75.6,34"
		/>
	<path class="st0" d="M82.3,33.8h1.1v-4.4c0-1.4,1-2.4,2.3-2.4c1.4,0,2.1,0.9,2.1,2.3v4.5H89v-4.8c0-1.8-1.1-3.1-2.9-3.1
		c-1.3,0-2.1,0.7-2.6,1.5v-1.3h-1.1V33.8z"/>
	<path class="st0" d="M91.9,29.5c0.2-1.5,1.2-2.6,2.5-2.6c1.5,0,2.3,1.2,2.5,2.6H91.9z M91.9,30.5H98c0-0.2,0-0.3,0-0.4
		c0-2.3-1.3-4.1-3.6-4.1c-2.1,0-3.7,1.8-3.7,4c0,2.4,1.7,4,3.8,4c1.5,0,2.4-0.6,3.2-1.4L97,31.9c-0.6,0.7-1.4,1.1-2.4,1.1
		C93.2,33,92,32.1,91.9,30.5"/>
</g>
<polygon class="st1" points="101.4,33.9 102.4,33.9 104.5,27.8 106.5,33.9 107.5,33.9 110.3,26.1 109.1,26.1 107,32.3 105,26.1 
	104,26.1 101.9,32.3 99.9,26.1 98.7,26.1 "/>
<g>
	<defs>
		<rect id="SVGID_3_" x="17.2" y="14.9" width="99.7" height="21.9"/>
	</defs>
	<clipPath id="SVGID_4_">
		<use xlink:href="#SVGID_3_"  style="overflow:visible;"/>
	</clipPath>
	<path class="st2" d="M114.2,34c1.5,0,2.7-0.8,2.7-2.3v0c0-1.4-1.3-1.8-2.5-2.2c-1-0.3-2-0.6-2-1.3v0c0-0.6,0.6-1.1,1.5-1.1
		c0.7,0,1.6,0.3,2.3,0.7l0.5-0.9c-0.8-0.5-1.8-0.8-2.8-0.8c-1.5,0-2.6,0.9-2.6,2.2v0c0,1.4,1.3,1.8,2.5,2.2c1,0.3,1.9,0.6,1.9,1.4v0
		c0,0.7-0.7,1.2-1.6,1.2c-0.9,0-1.8-0.4-2.7-1l-0.6,0.8C111.9,33.6,113.1,34,114.2,34"/>
	<path class="st3" d="M27.6,25.9c1.3-2.5,2.6-5.1,3.9-7.6c0.1-0.2,0.1-0.3,0.2-0.6c0.1-1-0.3-1.7-0.8-2.7c0.1,0.8,0.1,1.5-1,3.4
		l-3.8,7.6H27.6z M33.5,24.8c0.2-0.4,0.3-0.5,0.3-1c0.1-1-0.3-1.7-0.8-2.7c0.1,0.8,0.2,1.3-0.9,3.2l-0.8,1.5H33L33.5,24.8z
		 M30.3,25.9h-1.5l2.5-4.9c1.1-1.9,1-2.4,0.9-3.2c0.5,1.1,0.8,1.7,0.8,2.7c0,0.3-0.1,0.4-0.2,0.6C32,22.7,31.1,24.3,30.3,25.9"/>
	<path class="st3" d="M32.8,35.8c-7,2.4-15.6,0.7-15.6-8.2c0-4.8,3.9-8.8,8.7-9v3.6c-1.5,0.1-2.9,0.9-3.7,2
		c-1.3,1.8-1.4,4.6-0.3,6.6c1.6,3.2,4.2,2.8,7.2,2.8v-4.1h-2.8v-3h6.5l0,8.2V35.8z"/>
</g>
</svg>
