<?xml version="1.0" encoding="utf-8"?>
<!-- Generator: Adobe Illustrator 21.0.0, SVG Export Plug-In . SVG Version: 6.00 Build 0)  -->
<svg version="1.1" id="Layer_1" xmlns="http://www.w3.org/2000/svg" xmlns:xlink="http://www.w3.org/1999/xlink" x="0px" y="0px"
	 viewBox="0 0 60.4 57.1" style="enable-background:new 0 0 60.4 57.1;" xml:space="preserve">
<style type="text/css">
	.st0{clip-path:url(#SVGID_2_);fill:#1A1A1A;}
	.st1{fill:#1A1A1A;}
	.st2{clip-path:url(#SVGID_4_);fill:#1A1A1A;}
	.st3{clip-path:url(#SVGID_4_);fill:#253B7C;}
	.st4{clip-path:url(#SVGID_6_);}
	.st5{fill:#5E5C5D;}
	.st6{fill:#696767;}
	.st7{fill:#FFFFFF;}
</style>
<path class="st6" d="M36.5,24.4H25c-0.3,0-0.5,0.2-0.5,0.5v11.9c0,0.3,0.2,0.5,0.5,0.5h6.1v-4.9h-1.6v-2h1.6v-1.6
	c0-1.7,1-2.5,2.5-2.5c0.7,0,1.3,0.1,1.5,0.1v1.8h-1c-0.8,0-1,0.4-1,1v1.3h2l-0.4,2h-1.6l0,4.9h3.4c0.3,0,0.5-0.2,0.5-0.5V25
	C37,24.7,36.8,24.4,36.5,24.4"/>
</svg>
