<?xml version="1.0" encoding="utf-8"?>
<!-- Generator: Adobe Illustrator 21.0.0, SVG Export Plug-In . SVG Version: 6.00 Build 0)  -->
<svg version="1.1" id="Layer_1" xmlns="http://www.w3.org/2000/svg" xmlns:xlink="http://www.w3.org/1999/xlink" x="0px" y="0px"
	 viewBox="0 0 60.4 57.1" style="enable-background:new 0 0 60.4 57.1;" xml:space="preserve">
<style type="text/css">
	.st0{clip-path:url(#SVGID_2_);fill:#1A1A1A;}
	.st1{fill:#1A1A1A;}
	.st2{clip-path:url(#SVGID_4_);fill:#1A1A1A;}
	.st3{clip-path:url(#SVGID_4_);fill:#253B7C;}
	.st4{clip-path:url(#SVGID_6_);}
	.st5{fill:#5E5C5D;}
	.st6{fill:#696767;}
	.st7{fill:#FFFFFF;}
</style>
<path class="st6" d="M28.2,31.2l0-5.7l5.4,2.9L28.2,31.2z M40,24.5c0,0-0.2-1.4-0.8-2c-0.8-0.8-1.6-0.8-2-0.9c-2.8-0.2-7-0.2-7-0.2
	h0c0,0-4.2,0-7,0.2c-0.4,0-1.2,0.1-2,0.9c-0.6,0.6-0.8,2-0.8,2s-0.2,1.6-0.2,3.3v1.5c0,1.6,0.2,3.3,0.2,3.3s0.2,1.4,0.8,2
	c0.8,0.8,1.8,0.8,2.2,0.9c1.6,0.2,6.8,0.2,6.8,0.2s4.2,0,7-0.2c0.4,0,1.2-0.1,2-0.9c0.6-0.6,0.8-2,0.8-2s0.2-1.6,0.2-3.3v-1.5
	C40.2,26.2,40,24.5,40,24.5"/>
</svg>
