<?xml version="1.0" encoding="UTF-8"?>
<svg width="91px" height="21px" viewBox="0 0 91 21" version="1.1" xmlns="http://www.w3.org/2000/svg" xmlns:xlink="http://www.w3.org/1999/xlink">
    <!-- Generator: Sketch 53.1 (72631) - https://sketchapp.com -->
    <title>logo</title>
    <desc>Created with Sketch.</desc>
    <g id="logo" stroke="none" stroke-width="1" fill="none" fill-rule="evenodd">
        <g id="logo-grey" fill="#5E5C5D" fill-rule="nonzero">
            <path d="M27.4,17.9 C29.1,17.9 30.4,17.2 31.4,16.4 L31.4,12.3 L27.3,12.3 L27.3,14.1 L29.4,14.1 L29.4,15.4 C28.9,15.8 28.2,16 27.5,16 C25.8,16 24.7,14.7 24.7,13 L24.7,13 C24.7,11.4 25.9,10.1 27.4,10.1 C28.5,10.1 29.1,10.4 29.9,11.1 L31.2,9.5 C30.2,8.7 29.2,8.2 27.5,8.2 C24.7,8.2 22.6,10.4 22.6,13.1 L22.6,13.1 C22.5,15.9 24.5,17.9 27.4,17.9" id="Path"></path>
            <path d="M36.5,16.2 C35.4,16.2 34.6,15.3 34.6,14.2 L34.6,14.2 C34.6,13.1 35.3,12.2 36.5,12.2 C37.6,12.2 38.4,13.1 38.4,14.2 L38.4,14.2 C38.4,15.3 37.7,16.2 36.5,16.2 M36.5,17.9 C38.7,17.9 40.4,16.2 40.4,14.2 L40.4,14.2 C40.4,12.1 38.8,10.5 36.5,10.5 C34.3,10.5 32.6,12.2 32.6,14.2 L32.6,14.2 C32.6,16.3 34.3,17.9 36.5,17.9" id="Shape"></path>
            <path d="M45.1,16.2 C44,16.2 43.2,15.3 43.2,14.2 L43.2,14.2 C43.2,13.1 43.9,12.2 45.1,12.2 C46.2,12.2 47,13.1 47,14.2 L47,14.2 C47,15.3 46.3,16.2 45.1,16.2 M45.1,17.9 C47.3,17.9 49,16.2 49,14.2 L49,14.2 C49,12.1 47.4,10.5 45.1,10.5 C42.9,10.5 41.2,12.2 41.2,14.2 L41.2,14.2 C41.2,16.3 42.9,17.9 45.1,17.9" id="Shape"></path>
            <path d="M53.7,16.2 C52.7,16.2 51.9,15.4 51.9,14.2 L51.9,14.2 C51.9,13 52.7,12.2 53.7,12.2 C54.7,12.2 55.4,13 55.4,14.2 L55.4,14.2 C55.4,15.4 54.6,16.2 53.7,16.2 M53.2,17.9 C54.3,17.9 54.9,17.4 55.4,16.7 L55.4,17.7 L57.4,17.7 L57.4,8 L55.4,8 L55.4,11.5 C54.9,10.9 54.2,10.4 53.2,10.4 C51.5,10.4 49.9,11.7 49.9,14.1 L49.9,14.1 C49.9,16.6 51.5,17.9 53.2,17.9" id="Shape"></path>
            <path d="M59.2,17.8 L60.2,17.8 L60.2,13.8 C60.2,12.5 61.1,11.6 62.3,11.6 C63.5,11.6 64.2,12.4 64.2,13.7 L64.2,17.7 L65.2,17.7 L65.2,13.4 C65.2,11.8 64.2,10.6 62.5,10.6 C61.3,10.6 60.6,11.2 60.1,12 L60.1,10.8 L59.1,10.8 L59.1,17.8 L59.2,17.8 Z" id="Path"></path>
            <path d="M67.9,13.9 C68,12.6 69,11.6 70.2,11.6 C71.6,11.6 72.3,12.7 72.4,13.9 L67.9,13.9 Z M67.9,14.7 L73.4,14.7 C73.4,14.5 73.4,14.4 73.4,14.3 C73.4,12.3 72.2,10.6 70.2,10.6 C68.3,10.6 66.9,12.2 66.9,14.2 C66.9,16.4 68.5,17.8 70.4,17.8 C71.7,17.8 72.6,17.3 73.3,16.5 L72.7,15.9 C72.1,16.5 71.5,16.9 70.5,16.9 C69.1,17 68,16.2 67.9,14.7 L67.9,14.7 Z" id="Shape"></path>
            <polygon id="Path" points="76.4 17.8 77.3 17.8 79.2 12.3 81.1 17.8 82 17.8 84.4 10.8 83.3 10.8 81.5 16.4 79.6 10.8 78.8 10.8 76.9 16.4 75.1 10.8 74 10.8"></polygon>
            <path d="M87.9,17.9 C89.3,17.9 90.4,17.1 90.4,15.8 L90.4,15.8 C90.4,14.6 89.2,14.1 88.2,13.8 C87.3,13.5 86.4,13.3 86.4,12.6 L86.4,12.6 C86.4,12 86.9,11.6 87.7,11.6 C88.4,11.6 89.1,11.9 89.8,12.3 L90.3,11.5 C89.6,11 88.7,10.7 87.8,10.7 C86.4,10.7 85.4,11.5 85.4,12.7 L85.4,12.7 C85.4,14 86.6,14.3 87.7,14.7 C88.6,15 89.4,15.2 89.4,15.9 L89.4,15.9 C89.4,16.6 88.8,17 88,17 C87.2,17 86.4,16.7 85.6,16.1 L85.1,16.8 C85.8,17.5 86.9,17.9 87.9,17.9" id="Path"></path>
            <path d="M10,10.6 C11.2,8.3 12.3,6 13.5,3.8 C13.6,3.6 13.6,3.5 13.7,3.3 C13.8,2.4 13.4,1.8 13,0.9 C13.1,1.6 13.1,2.2 12.1,3.9 L8.7,10.7 L10,10.7 L10,10.6 Z M15.3,9.6 C15.5,9.3 15.6,9.1 15.6,8.7 C15.7,7.8 15.3,7.2 14.9,6.3 C15,7 15.1,7.5 14.1,9.2 L13.4,10.6 L14.8,10.6 L15.3,9.6 Z M12.5,10.6 L11.1,10.6 L13.3,6.2 C14.3,4.5 14.2,4.1 14.1,3.3 C14.5,4.2 14.8,4.9 14.8,5.7 C14.8,5.9 14.7,6.1 14.7,6.2 C13.9,7.7 13.2,9.1 12.5,10.6 L12.5,10.6 Z" id="Shape"></path>
            <path d="M14.7,19.5 C8.4,21.6 0.7,20.2 0.7,12.1 C0.7,7.7 4.2,4.2 8.5,4 L8.5,7.2 C7.1,7.3 5.9,8 5.1,9 C3.9,10.7 3.9,13.1 4.8,15 C6.3,17.9 8.6,17.5 11.3,17.5 L11.3,13.8 L8.8,13.8 L8.8,11.1 L14.7,11.1 L14.7,18.5 L14.7,19.5 Z" id="Path"></path>
        </g>
    </g>
</svg>