<?xml version="1.0" encoding="UTF-8"?>
<svg width="91px" height="20px" viewBox="0 0 91 20" version="1.1" xmlns="http://www.w3.org/2000/svg" xmlns:xlink="http://www.w3.org/1999/xlink">
    <!-- Generator: Sketch 53.1 (72631) - https://sketchapp.com -->
    <title>logo--color</title>
    <desc>Created with Sketch.</desc>
    <g id="logo--color" stroke="none" stroke-width="1" fill="none" fill-rule="evenodd">
        <g id="GNM_Logo_FC" fill-rule="nonzero">
            <g id="Group" transform="translate(21.715909, 7.272727)" fill="#1A1A1A">
                <path d="M5.42897727,10 C7.14815341,10 8.50539773,9.36363636 9.50071023,8.45454545 L9.50071023,4.36363636 L5.42897727,4.36363636 L5.42897727,6.18181818 L7.51008523,6.18181818 L7.51008523,7.54545455 C6.9671875,7.90909091 6.33380682,8.09090909 5.51946023,8.09090909 C3.89076705,8.09090909 2.62400568,6.81818182 2.62400568,5.09090909 L2.62400568,5.09090909 C2.62400568,3.45454545 3.80028409,2.18181818 5.33849432,2.18181818 C6.42428977,2.18181818 7.05767045,2.54545455 7.78153409,3.18181818 L9.04829545,1.63636364 C8.05298295,0.818181818 7.05767045,0.363636364 5.33849432,0.363636364 C2.44303977,0.363636364 0.361931818,2.54545455 0.361931818,5.27272727 L0.361931818,5.27272727 C0.452414773,7.90909091 2.44303977,10 5.42897727,10" id="Path"></path>
                <path d="M14.4772727,8.27272727 C13.3009943,8.27272727 12.5771307,7.36363636 12.5771307,6.27272727 L12.5771307,6.27272727 C12.5771307,5.18181818 13.3009943,4.27272727 14.4772727,4.27272727 C15.6535511,4.27272727 16.3774148,5.18181818 16.3774148,6.27272727 L16.3774148,6.27272727 C16.3774148,7.36363636 15.6535511,8.27272727 14.4772727,8.27272727 M14.4772727,10 C16.7393466,10 18.3680398,8.27272727 18.3680398,6.18181818 L18.3680398,6.18181818 C18.3680398,4.09090909 16.7393466,2.45454545 14.4772727,2.45454545 C12.2151989,2.45454545 10.5865057,4.18181818 10.5865057,6.27272727 L10.5865057,6.27272727 C10.5865057,8.36363636 12.2151989,10 14.4772727,10" id="Shape"></path>
                <path d="M23.1636364,8.27272727 C21.987358,8.27272727 21.2634943,7.36363636 21.2634943,6.27272727 L21.2634943,6.27272727 C21.2634943,5.18181818 21.987358,4.27272727 23.1636364,4.27272727 C24.3399148,4.27272727 25.0637784,5.18181818 25.0637784,6.27272727 L25.0637784,6.27272727 C25.0637784,7.36363636 24.3399148,8.27272727 23.1636364,8.27272727 M23.1636364,10 C25.4257102,10 27.0544034,8.27272727 27.0544034,6.18181818 L27.0544034,6.18181818 C27.0544034,4.09090909 25.4257102,2.45454545 23.1636364,2.45454545 C20.9015625,2.45454545 19.2728693,4.18181818 19.2728693,6.27272727 L19.2728693,6.27272727 C19.2728693,8.36363636 20.9015625,10 23.1636364,10" id="Shape"></path>
                <path d="M31.759517,8.27272727 C30.7642045,8.27272727 29.949858,7.45454545 29.949858,6.27272727 L29.949858,6.27272727 C29.949858,5.09090909 30.7642045,4.27272727 31.759517,4.27272727 C32.7548295,4.27272727 33.4786932,5.09090909 33.4786932,6.27272727 L33.4786932,6.27272727 C33.5691761,7.45454545 32.7548295,8.27272727 31.759517,8.27272727 M31.3071023,10 C32.3928977,10 33.0262784,9.45454545 33.5691761,8.81818182 L33.5691761,9.81818182 L35.6502841,9.81818182 L35.6502841,0 L33.4786932,0 L33.4786932,3.54545455 C33.0262784,3 32.3024148,2.45454545 31.2166193,2.45454545 C29.4974432,2.45454545 27.959233,3.81818182 27.959233,6.18181818 L27.959233,6.18181818 C27.959233,8.63636364 29.5879261,10 31.3071023,10" id="Shape"></path>
                <path d="M37.3694602,9.81818182 L38.3647727,9.81818182 L38.3647727,5.81818182 C38.3647727,4.54545455 39.2696023,3.63636364 40.4458807,3.63636364 C41.712642,3.63636364 42.3460227,4.45454545 42.3460227,5.72727273 L42.3460227,9.81818182 L43.4318182,9.81818182 L43.4318182,5.45454545 C43.4318182,3.81818182 42.4365057,2.63636364 40.8078125,2.63636364 C39.6315341,2.63636364 38.9076705,3.27272727 38.4552557,4 L38.4552557,2.81818182 L37.4599432,2.81818182 L37.4599432,9.81818182 L37.3694602,9.81818182 Z" id="Path"></path>
                <path d="M46.0558239,5.90909091 C46.2367898,4.54545455 47.1416193,3.54545455 48.3178977,3.54545455 C49.675142,3.54545455 50.3990057,4.63636364 50.5799716,5.90909091 L46.0558239,5.90909091 Z M46.0558239,6.81818182 L51.5752841,6.81818182 C51.5752841,6.63636364 51.5752841,6.54545455 51.5752841,6.45454545 C51.5752841,4.36363636 50.3990057,2.72727273 48.3178977,2.72727273 C46.4177557,2.72727273 44.9700284,4.36363636 44.9700284,6.36363636 C44.9700284,8.54545455 46.5082386,10 48.4083807,10 C49.765625,10 50.5799716,9.45454545 51.3038352,8.72727273 L50.6704545,8.09090909 C50.1275568,8.72727273 49.4036932,9.09090909 48.4988636,9.09090909 C47.2321023,9.09090909 46.1463068,8.27272727 46.0558239,6.81818182 L46.0558239,6.81818182 Z" id="Shape"></path>
            </g>
            <polygon id="Path" fill="#1A1A1A" points="76.3676136 17.1818182 77.2724432 17.1818182 79.1725852 11.6363636 80.9822443 17.1818182 81.8870739 17.1818182 84.4205966 10.0909091 83.3348011 10.0909091 81.4346591 15.7272727 79.625 10.0909091 78.7201705 10.0909091 76.8200284 15.7272727 75.0103693 10.0909091 73.9245739 10.0909091"></polygon>
            <g id="Group">
                <path d="M87.9494318,17.2727273 C89.3066761,17.2727273 90.3924716,16.5454545 90.3924716,15.1818182 L90.3924716,15.1818182 C90.3924716,13.9090909 89.2161932,13.5454545 88.1303977,13.1818182 C87.2255682,12.9090909 86.3207386,12.6363636 86.3207386,12 L86.3207386,12 C86.3207386,11.4545455 86.8636364,11 87.677983,11 C88.3113636,11 89.1257102,11.2727273 89.7590909,11.6363636 L90.2115057,10.8181818 C89.487642,10.3636364 88.5828125,10.0909091 87.677983,10.0909091 C86.3207386,10.0909091 85.3254261,10.9090909 85.3254261,12.0909091 L85.3254261,12.0909091 C85.3254261,13.3636364 86.5017045,13.7272727 87.5875,14.0909091 C88.4923295,14.3636364 89.3066761,14.6363636 89.3066761,15.3636364 L89.3066761,15.3636364 C89.3066761,16 88.6732955,16.4545455 87.8589489,16.4545455 C87.0446023,16.4545455 86.2302557,16.0909091 85.4159091,15.5454545 L84.8730114,16.2727273 C85.8683239,16.9090909 86.9541193,17.2727273 87.9494318,17.2727273" id="Path" fill="#1A1A1A"></path>
                <path d="M9.59119318,9.90909091 C10.7674716,7.63636364 11.94375,5.27272727 13.1200284,3 C13.2105114,2.81818182 13.2105114,2.72727273 13.3009943,2.45454545 C13.3914773,1.54545455 13.0295455,0.909090909 12.5771307,-3.55271368e-15 C12.6676136,0.727272727 12.6676136,1.36363636 11.6723011,3.09090909 L8.23394886,10 L9.59119318,10 L9.59119318,9.90909091 Z M14.9296875,8.90909091 C15.1106534,8.54545455 15.2011364,8.45454545 15.2011364,8 C15.2916193,7.09090909 14.9296875,6.45454545 14.4772727,5.54545455 C14.5677557,6.27272727 14.6582386,6.72727273 13.6629261,8.45454545 L12.9390625,9.81818182 L14.4772727,9.81818182 L14.9296875,8.90909091 Z M12.034233,9.90909091 L10.6769886,9.90909091 L12.9390625,5.45454545 C13.934375,3.72727273 13.843892,3.27272727 13.7534091,2.54545455 C14.2058239,3.54545455 14.4772727,4.09090909 14.4772727,5 C14.4772727,5.27272727 14.3867898,5.36363636 14.2963068,5.54545455 C13.5724432,7 12.7580966,8.45454545 12.034233,9.90909091 L12.034233,9.90909091 Z" id="Shape" fill="#253B7C"></path>
                <path d="M14.2963068,18.9090909 C7.9625,21.0909091 0.180965909,19.5454545 0.180965909,11.4545455 C0.180965909,7.09090909 3.70980114,3.45454545 8.05298295,3.27272727 L8.05298295,6.54545455 C6.69573864,6.63636364 5.42897727,7.36363636 4.70511364,8.36363636 C3.52883523,10 3.43835227,12.5454545 4.43366477,14.3636364 C5.88139205,17.2727273 8.23394886,16.9090909 10.9484375,16.9090909 L10.9484375,13.1818182 L8.41491477,13.1818182 L8.41491477,10.4545455 L14.2963068,10.4545455 L14.2963068,17.9090909 L14.2963068,18.9090909 Z" id="Path" fill="#253B7C"></path>
            </g>
        </g>
    </g>
</svg>